<svg xmlns="http://www.w3.org/2000/svg" xmlns:xlink="http://www.w3.org/1999/xlink" width="66" zoomAndPan="magnify" viewBox="0 0 49.5 45.749999" height="61" preserveAspectRatio="xMidYMid meet" version="1.0"><defs><g/><clipPath id="5c472f09ea"><path d="M 0 22 L 22 22 L 22 44.65625 L 0 44.65625 Z M 0 22 " clip-rule="nonzero"/></clipPath><clipPath id="e65a262e59"><path d="M 23 26 L 42 26 L 42 44.65625 L 23 44.65625 Z M 23 26 " clip-rule="nonzero"/></clipPath><clipPath id="e9174d7079"><path d="M 23 38 L 30 38 L 30 44.65625 L 23 44.65625 Z M 23 38 " clip-rule="nonzero"/></clipPath><clipPath id="4711ed11df"><path d="M 26 22 L 44.550781 22 L 44.550781 42 L 26 42 Z M 26 22 " clip-rule="nonzero"/></clipPath><clipPath id="1fec374f0d"><path d="M 38 22 L 44.550781 22 L 44.550781 29 L 38 29 Z M 38 22 " clip-rule="nonzero"/></clipPath><clipPath id="2d60fba0a1"><path d="M 23 0.105469 L 34 0.105469 L 34 22 L 23 22 Z M 23 0.105469 " clip-rule="nonzero"/></clipPath><clipPath id="415f829a58"><path d="M 33 0.105469 L 44.550781 0.105469 L 44.550781 22 L 33 22 Z M 33 0.105469 " clip-rule="nonzero"/></clipPath><clipPath id="9174e82b21"><path d="M 0 0.105469 L 22 0.105469 L 22 22 L 0 22 Z M 0 0.105469 " clip-rule="nonzero"/></clipPath></defs><g clip-path="url(#5c472f09ea)"><path fill="#06badb" d="M 0 28.042969 L 0 22.808594 L 21.410156 22.808594 L 21.410156 28.042969 C 12.945312 29.980469 15.375 38.800781 21.410156 39.089844 L 21.410156 44.226562 L 0 44.226562 L 0 38.703125 C 5.15625 39.382812 8.757812 30.175781 0 28.042969 Z M 0 28.042969 " fill-opacity="1" fill-rule="nonzero"/></g><g clip-path="url(#e65a262e59)"><path fill="#4d17a0" d="M 23.132812 32.496094 L 23.132812 26.070312 L 41.351562 44.65625 L 35.148438 44.65625 Z M 23.132812 32.496094 " fill-opacity="1" fill-rule="nonzero"/></g><g clip-path="url(#e9174d7079)"><path fill="#4d17a0" d="M 23.132812 44.457031 L 23.132812 38.425781 L 29.042969 44.65625 Z M 23.132812 44.457031 " fill-opacity="1" fill-rule="nonzero"/></g><g clip-path="url(#4711ed11df)"><path fill="#4d17a0" d="M 44.550781 35.066406 L 44.550781 41.589844 L 26.136719 22.808594 L 32.339844 22.808594 Z M 44.550781 35.066406 " fill-opacity="1" fill-rule="nonzero"/></g><g clip-path="url(#1fec374f0d)"><path fill="#4d17a0" d="M 44.550781 22.808594 L 44.550781 28.839844 L 38.636719 22.808594 Z M 44.550781 22.808594 " fill-opacity="1" fill-rule="nonzero"/></g><g clip-path="url(#2d60fba0a1)"><path fill="#ff610f" d="M 23.175781 0.105469 C 23.097656 0.261719 23.140625 14.601562 23.175781 21.75 C 34.617188 22.140625 39.90625 3.03125 23.175781 0.105469 Z M 23.175781 0.105469 " fill-opacity="1" fill-rule="nonzero"/></g><g clip-path="url(#415f829a58)"><path fill="#ff610f" d="M 44.507812 21.953125 C 44.585938 21.796875 44.539062 7.457031 44.507812 0.304688 C 33.0625 -0.0859375 27.773438 19.027344 44.507812 21.953125 Z M 44.507812 21.953125 " fill-opacity="1" fill-rule="nonzero"/></g><g clip-path="url(#9174e82b21)"><path fill="#000000" d="M 0.214844 0.535156 L 0.214844 21.523438 L 4.285156 21.523438 L 4.285156 14.882812 L 15.636719 14.882812 C 21.203125 13.171875 25.703125 4.601562 15.636719 0.535156 Z M 4.285156 10.8125 L 4.285156 4.386719 L 15.207031 4.386719 C 18.632812 5.886719 17.992188 9.957031 15.207031 10.8125 Z M 4.285156 10.8125 " fill-opacity="1" fill-rule="evenodd"/></g><g fill="#000000" fill-opacity="1"><g transform="translate(44.936193, 43.941771)"><g><path d="M 0.125 -1.953125 L 1.5 -1.953125 L 1.5 -1.734375 L 0.9375 -1.734375 L 0.9375 0 L 0.6875 0 L 0.6875 -1.734375 L 0.125 -1.734375 Z M 0.125 -1.953125 "/></g></g></g><g fill="#000000" fill-opacity="1"><g transform="translate(46.560289, 43.941771)"><g><path d="M 0.203125 0 L 0.203125 -1.953125 L 0.5 -1.953125 L 0.75 -1.28125 C 0.75 -1.257812 0.753906 -1.234375 0.765625 -1.203125 C 0.773438 -1.179688 0.78125 -1.160156 0.78125 -1.140625 C 0.789062 -1.117188 0.800781 -1.09375 0.8125 -1.0625 L 0.828125 -1.0625 C 0.828125 -1.09375 0.832031 -1.117188 0.84375 -1.140625 C 0.851562 -1.160156 0.859375 -1.179688 0.859375 -1.203125 C 0.867188 -1.234375 0.878906 -1.257812 0.890625 -1.28125 L 1.109375 -1.953125 L 1.421875 -1.953125 L 1.421875 0 L 1.1875 0 L 1.1875 -1.359375 C 1.1875 -1.390625 1.1875 -1.421875 1.1875 -1.453125 C 1.195312 -1.492188 1.203125 -1.53125 1.203125 -1.5625 C 1.203125 -1.601562 1.203125 -1.644531 1.203125 -1.6875 L 1.1875 -1.6875 C 1.175781 -1.644531 1.164062 -1.609375 1.15625 -1.578125 C 1.144531 -1.546875 1.132812 -1.507812 1.125 -1.46875 C 1.113281 -1.425781 1.101562 -1.390625 1.09375 -1.359375 L 0.921875 -0.859375 L 0.703125 -0.859375 L 0.53125 -1.359375 C 0.519531 -1.398438 0.507812 -1.4375 0.5 -1.46875 C 0.488281 -1.507812 0.476562 -1.546875 0.46875 -1.578125 C 0.457031 -1.617188 0.445312 -1.65625 0.4375 -1.6875 L 0.421875 -1.6875 C 0.421875 -1.644531 0.421875 -1.609375 0.421875 -1.578125 C 0.421875 -1.535156 0.421875 -1.492188 0.421875 -1.453125 C 0.421875 -1.421875 0.421875 -1.390625 0.421875 -1.359375 L 0.421875 0 Z M 0.203125 0 "/></g></g></g></svg>